<?xml version="1.0" encoding="utf-8"?>
<!-- Generator: Adobe Illustrator 17.0.0, SVG Export Plug-In . SVG Version: 6.00 Build 0)  -->
<!DOCTYPE svg PUBLIC "-//W3C//DTD SVG 1.1//EN" "http://www.w3.org/Graphics/SVG/1.1/DTD/svg11.dtd">
<svg version="1.1" id="Layer_1" xmlns:sketch="http://www.bohemiancoding.com/sketch/ns"
	 xmlns="http://www.w3.org/2000/svg" xmlns:xlink="http://www.w3.org/1999/xlink" x="0px" y="0px" width="386.384px" height="100px"
	 viewBox="0 0 386.384 100" enable-background="new 0 0 386.384 100" xml:space="preserve">
<title>bottle_2</title>
<description>Created with Sketch (http://www.bohemiancoding.com/sketch)</description>
<g id="Foodie" sketch:type="MSPage">
	<path id="bottle_2" sketch:type="MSShapeGroup" fill="#D85C22" d="M54.746,44.458c0,0,7.125,0,7.125,10.739v28.638
		c0,1.79-1.781,1.79-1.781,1.79H42.278c0,0-1.781,0-1.781-1.79V55.197c0-10.739,7.125-10.739,7.125-10.739V28.625h7.125v15.833
		H54.746z M43.663,42.121c-3.108,1.313-7.125,4.708-7.125,13.48v28.617c0,5.366,5.344,5.366,5.344,5.366h21.375
		c0,0,1.781,0,1.781-5.366V55.6c0-8.772-4.017-12.166-7.125-13.48V24.667h-14.25L43.663,42.121L43.663,42.121z M52.569,10.417
		c-12.503,0,8.94,0-3.562,0c-5.344,0-5.344,5.523-5.344,5.523c0,1.841,1.855,3.682,1.855,3.682V21.5h3.489v-1.878
		c0,0-1.781-1.814-1.781-3.682s1.781-1.841,1.781-1.841h3.562c0,0,1.781-0.027,1.781,1.841s-1.781,3.682-1.781,3.682V21.5h3.509
		v-1.878c0,0,1.835-1.847,1.835-3.682C57.913,15.94,57.913,10.417,52.569,10.417z"/>
</g>
<text transform="matrix(1 0 0 1 91.8333 62.5)" fill="#FFE0D4" font-family="'BrandonGrotesque-Bold'" font-size="32">SPECS WATCHER</text>
</svg>
